<?xml version="1.0" standalone="no"?>
<!DOCTYPE svg PUBLIC "-//W3C//DTD SVG 20010904//EN"
 "http://www.w3.org/TR/2001/REC-SVG-20010904/DTD/svg10.dtd">
<svg version="1.0" xmlns="http://www.w3.org/2000/svg"
 width="1136.000000pt" height="1136.000000pt" viewBox="0 0 1136.000000 1136.000000"
 preserveAspectRatio="xMidYMid meet">
<metadata>
Created by potrace 1.14, written by Peter Selinger 2001-2017
</metadata>
<g transform="translate(0.000000,1136.000000) scale(0.100000,-0.100000)"
fill="#000000" stroke="none">
<path d="M2100 7251 l0 -1190 -127 -79 c-71 -43 -159 -96 -198 -118 -38 -21
-88 -49 -110 -62 -74 -43 -403 -202 -417 -202 -8 0 -18 -4 -24 -10 -23 -23
-309 -123 -484 -169 -66 -17 -105 -25 -210 -46 -14 -3 -45 -8 -70 -11 -25 -3
-56 -7 -70 -9 -30 -6 -170 -17 -255 -20 -84 -4 -82 -3 -99 -21 -22 -22 -20
-67 4 -89 17 -15 36 -18 113 -17 86 2 190 9 247 17 14 2 45 7 70 10 157 21
408 84 577 144 447 159 816 363 1578 871 498 332 647 425 867 539 220 113 403
180 586 214 73 14 287 20 349 10 32 -5 32 -6 -47 -53 -167 -102 -317 -231
-390 -335 -40 -58 -78 -136 -84 -176 -3 -18 -8 -47 -10 -62 -3 -16 0 -54 5
-85 40 -216 296 -399 771 -550 175 -56 510 -137 688 -167 19 -3 42 -8 50 -10
8 -2 35 -7 60 -10 25 -3 52 -8 60 -10 8 -2 35 -7 60 -10 25 -4 66 -11 92 -15
26 -5 69 -12 95 -15 26 -4 73 -10 103 -15 30 -5 79 -12 109 -15 30 -4 63 -8
73 -10 11 -2 46 -7 79 -10 33 -4 68 -8 78 -10 9 -2 48 -6 86 -10 39 -4 81 -8
95 -10 58 -6 157 -17 180 -20 22 -3 76 -8 230 -20 25 -2 70 -7 100 -10 102
-10 161 -15 365 -30 169 -12 248 -18 445 -30 145 -9 423 -23 575 -30 61 -3
160 -7 220 -10 286 -14 848 -31 1305 -40 96 -2 464 -7 816 -10 l642 -7 21 23
c27 29 27 52 -2 83 -20 23 -30 25 -142 30 -301 14 -620 101 -1035 283 -96 42
-868 428 -880 439 -2 3 -5 533 -5 1177 l0 1172 -3567 3 -3568 2 0 -1189z
m7041 1085 c4 -74 2 -2196 -3 -2196 -3 0 -57 24 -120 54 -223 105 -375 170
-548 233 -96 35 -364 120 -404 127 -11 2 -51 11 -87 20 -70 16 -88 19 -179 35
-81 15 -117 19 -200 26 -41 4 -86 9 -100 11 -34 5 -408 5 -440 0 -14 -3 -59
-7 -100 -11 -41 -3 -91 -8 -110 -11 -94 -15 -251 -46 -305 -60 -33 -9 -67 -17
-75 -19 -29 -6 -245 -77 -275 -91 -16 -7 -54 -23 -84 -34 l-55 -21 -145 89
c-80 49 -222 136 -316 194 -210 130 -253 154 -386 223 -332 169 -603 241 -919
243 -69 0 -145 -3 -170 -8 -25 -4 -65 -11 -89 -14 -116 -15 -331 -91 -516
-180 -247 -121 -413 -222 -959 -585 -187 -125 -346 -230 -352 -233 -7 -5 -10
325 -9 1105 1 612 3 1112 3 1113 1 0 1564 1 3472 1 2486 0 3470 -3 3471 -11z
m-1995 -1836 c38 -6 83 -13 99 -16 17 -3 44 -7 60 -9 17 -3 77 -14 135 -25
471 -94 770 -237 770 -367 0 -97 -220 -202 -476 -227 -68 -7 -271 -8 -324 -2
-60 7 -142 18 -159 21 -196 41 -289 69 -451 138 -102 43 -447 215 -543 270
l-59 34 87 31 c132 48 326 102 460 127 17 3 41 7 54 10 13 2 49 7 80 11 31 3
57 7 59 9 8 7 149 4 208 -5z"/>
<path d="M8433 7955 c-51 -22 -119 -91 -142 -146 -40 -91 -25 -206 36 -285
108 -142 342 -137 437 8 l17 25 -47 1 c-201 4 -327 203 -249 395 9 21 -7 22
-52 2z"/>
<path d="M10630 4874 c-52 -6 -108 -15 -125 -19 -47 -12 -102 -46 -112 -69
-11 -25 -10 -971 1 -1004 4 -12 25 -31 46 -42 80 -41 200 -55 460 -54 237 2
374 26 427 76 23 21 23 23 23 295 l0 273 -242 -2 -242 -3 -1 -40 0 -40 70 0
c39 0 72 -3 75 -7 4 -5 5 -368 1 -429 -2 -30 -54 -42 -161 -37 -62 2 -104 8
-112 16 -10 10 -13 121 -14 499 l-1 485 35 15 c38 16 179 16 225 1 30 -11 29
0 31 -183 l1 -120 168 0 167 -1 0 151 c0 172 -3 179 -87 209 -108 38 -435 54
-633 30z"/>
<path d="M20 4872 c-16 -6 -14 -1169 3 -1174 19 -7 635 -1 697 6 131 16 198
36 232 71 23 23 24 25 23 235 l-1 212 -24 18 c-14 10 -28 16 -32 14 -3 -2 -9
0 -12 5 -3 5 -27 12 -53 16 l-48 8 61 16 c114 30 108 18 109 247 1 109 -3 210
-7 225 -16 48 -108 83 -254 95 -84 7 -676 12 -694 6z m586 -97 l30 -13 1 -201
c0 -165 -3 -203 -15 -213 -9 -8 -64 -14 -143 -18 -124 -5 -129 -4 -130 15 0
11 -2 116 -2 233 l-2 213 115 -2 c67 0 128 -6 146 -14z m-31 -540 c22 -3 45
-12 51 -20 7 -9 11 -84 10 -212 l-1 -198 -35 -12 c-19 -7 -84 -12 -145 -12
l-110 -1 0 227 c0 218 1 228 20 233 22 6 151 3 210 -5z"/>
<path d="M1828 4872 c-10 -2 -51 -121 -136 -395 -67 -216 -133 -437 -148 -492
-14 -55 -37 -140 -51 -189 -13 -48 -21 -91 -18 -94 4 -4 78 -7 167 -7 133 0
161 2 167 15 5 8 23 75 41 148 l32 132 164 0 163 0 10 -37 c6 -21 22 -85 35
-142 14 -57 28 -106 31 -110 8 -8 325 -8 330 0 3 3 0 23 -6 44 -6 20 -12 45
-14 54 -12 60 -88 332 -147 521 -38 124 -92 297 -119 384 -27 88 -52 162 -54
165 -5 5 -421 8 -447 3z m291 -508 c38 -153 65 -281 61 -284 -6 -4 -187 -5
-262 -1 -14 1 -15 6 -7 34 5 17 11 43 14 57 3 14 14 61 25 105 12 44 23 91 26
105 3 14 12 52 21 85 22 87 22 86 34 138 6 27 13 47 15 45 2 -2 35 -130 73
-284z"/>
<path d="M2946 4870 c-9 -3 53 -113 194 -343 l206 -338 -1 -237 c0 -130 1
-242 2 -247 4 -11 311 -14 328 -3 6 4 10 96 9 245 l-1 238 32 55 c18 30 107
177 198 327 91 149 170 280 175 290 10 17 2 18 -136 16 -81 0 -162 -1 -179 -2
-32 -1 -34 -4 -144 -223 -61 -123 -112 -224 -114 -226 -1 -2 -53 98 -115 222
-74 148 -119 226 -129 227 -65 4 -314 3 -325 -1z"/>
<path d="M4624 4872 c-17 -2 -26 -18 -44 -75 -47 -153 -103 -335 -122 -392
-84 -262 -202 -694 -192 -704 3 -3 79 -6 169 -6 l164 0 23 90 c12 49 23 92 23
95 4 18 17 78 21 93 5 15 22 17 169 17 147 0 164 -2 168 -17 3 -10 15 -58 27
-108 27 -115 42 -165 49 -166 22 -5 315 -3 323 2 6 4 2 32 -10 75 -11 38 -36
132 -57 209 -20 77 -66 235 -102 350 -36 116 -87 282 -114 370 -28 87 -52 161
-54 163 -5 5 -410 8 -441 4z m242 -336 c3 -16 7 -32 9 -36 2 -3 6 -18 9 -33
10 -45 15 -67 54 -227 22 -85 37 -157 36 -159 -5 -5 -265 -7 -273 -1 -4 3 24
133 63 290 l70 285 13 -45 c7 -25 16 -58 19 -74z"/>
<path d="M5934 4871 c-2 -2 -4 -268 -4 -590 l0 -586 155 0 155 0 1 110 c0 60
0 222 -1 360 -1 225 1 248 14 230 9 -11 16 -23 16 -26 0 -3 87 -156 194 -340
l194 -333 119 -1 118 -1 0 588 c0 385 -3 588 -10 589 -13 1 -275 1 -297 0 -17
-1 -18 -25 -18 -358 0 -355 0 -357 -19 -323 -10 19 -40 73 -66 120 -26 47 -61
110 -78 140 -16 30 -45 81 -63 113 -19 32 -34 59 -34 61 0 2 -29 54 -65 115
-36 62 -65 116 -65 122 0 10 -3 10 -143 12 -54 1 -101 0 -103 -2z"/>
<path d="M7477 4872 c-26 -3 -28 -6 -25 -43 l2 -39 218 0 c120 0 218 -1 218
-3 0 -2 -23 -54 -51 -117 -28 -63 -84 -194 -126 -290 -41 -96 -84 -193 -94
-215 -69 -152 -173 -395 -179 -423 -5 -21 -4 -35 4 -39 6 -4 199 -8 429 -8
l417 0 0 42 0 43 -235 0 c-129 0 -235 2 -235 4 0 2 21 50 46 107 25 57 52 118
59 134 7 17 22 50 33 75 199 452 312 722 312 745 l0 30 -382 0 c-211 0 -396
-1 -411 -3z"/>
<path d="M9054 4845 c-7 -16 -34 -97 -60 -180 -73 -238 -125 -405 -146 -470
-11 -33 -35 -121 -54 -195 -19 -74 -44 -168 -55 -208 -11 -41 -18 -79 -16 -86
3 -8 49 -12 165 -11 89 0 163 3 165 5 2 3 20 68 39 145 l34 140 165 3 165 2
34 -142 c19 -79 36 -145 37 -148 5 -5 313 -8 329 -3 8 3 5 26 -8 74 -10 38
-36 136 -57 217 -21 81 -88 307 -150 503 -61 196 -111 361 -111 368 0 14 25
12 -239 14 l-224 2 -13 -30z m257 -265 c4 -19 30 -127 59 -240 29 -113 53
-218 53 -234 l2 -29 -128 -1 c-71 -1 -133 2 -138 5 -5 3 19 121 56 270 36 145
65 273 65 284 1 20 1 20 12 0 6 -11 15 -35 19 -55z"/>
<path d="M174 3348 c-57 -12 -102 -39 -117 -70 -9 -18 -13 -68 -12 -159 l1
-132 33 -28 c18 -15 53 -32 76 -38 58 -14 272 -15 281 0 14 23 -19 32 -128 34
-84 1 -121 6 -146 19 -17 9 -33 20 -33 24 -6 36 -4 251 3 264 17 36 62 48 172
48 57 0 111 3 120 6 22 8 20 34 -1 35 -62 5 -217 3 -249 -3z"/>
<path d="M1254 3349 c-18 -6 -36 -31 -100 -144 -6 -11 -45 -77 -86 -146 -44
-74 -72 -132 -68 -139 4 -6 20 -10 36 -8 22 2 37 15 63 56 l34 52 144 0 c128
0 144 -2 150 -17 4 -10 17 -35 30 -55 18 -30 30 -38 53 -38 16 0 32 4 35 10
10 17 -231 427 -255 433 -9 2 -25 1 -36 -4z m122 -278 c-7 -10 -211 -6 -209 5
1 5 25 49 53 98 l52 88 54 -92 c30 -50 52 -95 50 -99z"/>
<path d="M2117 3346 c-10 -11 -13 -62 -13 -222 l1 -209 33 -3 c44 -4 49 13 47
191 -1 81 1 147 4 147 3 0 44 -32 89 -70 46 -39 93 -70 104 -70 11 0 58 32
103 70 45 39 85 70 88 70 4 0 8 -75 9 -167 l3 -168 29 -3 c16 -2 32 2 37 9 4
7 7 104 7 216 0 186 -2 204 -18 213 -27 14 -55 0 -130 -65 -36 -32 -78 -68
-93 -82 -16 -13 -34 -22 -40 -20 -7 3 -56 42 -109 86 -101 85 -129 99 -151 77z"/>
<path d="M3220 3345 c-6 -7 -9 -99 -7 -221 l2 -209 189 -3 c188 -2 225 3 198
30 -8 8 -60 12 -159 12 l-148 1 -3 88 -4 87 105 0 c114 0 137 4 137 26 0 16
-6 17 -105 20 -38 1 -85 2 -102 3 l-33 1 0 65 0 65 148 0 c150 0 188 8 164 32
-17 17 -368 20 -382 3z"/>
<path d="M4179 3350 c-14 -8 -16 -37 -15 -222 l1 -213 189 -3 c188 -2 225 3
198 30 -8 8 -60 12 -159 12 l-148 1 -1 193 c-1 106 -3 194 -5 196 -12 11 -46
14 -60 6z"/>
<path d="M6116 3348 c-76 -16 -126 -55 -131 -103 -3 -22 27 -65 53 -79 15 -8
90 -32 165 -54 76 -22 147 -48 158 -58 26 -23 21 -52 -14 -78 -38 -28 -155
-26 -247 3 -77 25 -81 25 -105 7 -18 -13 -18 -14 6 -26 88 -48 317 -64 386
-27 38 20 73 63 73 89 0 55 -42 81 -210 128 -177 50 -208 70 -174 119 23 32
77 44 168 36 142 -12 171 -12 171 5 0 8 -18 19 -43 27 -55 16 -205 22 -256 11z"/>
<path d="M7263 3345 c-11 -8 -28 -29 -36 -47 -9 -18 -61 -107 -115 -198 -55
-91 -97 -171 -94 -177 2 -7 17 -13 32 -13 29 0 49 19 82 79 l17 31 143 0 143
0 30 -53 c24 -41 37 -53 59 -55 53 -6 52 12 -2 103 -29 48 -52 91 -52 96 0 5
-4 9 -10 9 -5 0 -10 4 -10 10 0 6 -100 180 -124 216 -8 11 -46 11 -63 -1z
m137 -275 c0 -6 -208 -6 -214 1 -2 2 20 46 51 98 l55 93 54 -93 c30 -52 54
-96 54 -99z"/>
<path d="M8136 3346 c-11 -9 -14 -54 -12 -221 l1 -210 30 -3 c17 -2 33 2 40
11 5 8 9 56 8 110 l-1 97 143 0 c150 0 175 4 175 25 0 19 -38 24 -186 22
l-132 -2 0 68 0 67 153 0 c152 0 183 6 156 33 -16 16 -356 18 -375 3z"/>
<path d="M9322 3343 c-12 -10 -29 -32 -39 -50 -10 -18 -60 -103 -110 -189 -51
-86 -94 -164 -95 -173 -2 -12 5 -16 32 -16 32 0 38 5 65 52 l30 52 148 1 c86
0 147 -4 147 -9 0 -6 14 -30 31 -55 24 -37 36 -46 59 -46 43 0 45 15 11 70
-17 28 -31 54 -31 58 0 4 -5 13 -12 20 -7 7 -26 36 -43 66 -99 177 -118 207
-138 221 -27 19 -30 19 -55 -2z m130 -250 c18 -22 2 -27 -108 -28 -121 -1
-117 -11 -43 112 l51 85 45 -78 c24 -43 49 -84 55 -91z"/>
<path d="M10191 3346 c-4 -6 -8 -105 -7 -221 l1 -210 29 -3 c16 -2 32 0 37 5
5 5 9 46 10 91 l1 81 83 0 84 0 39 -42 c22 -23 59 -63 82 -89 41 -47 69 -58
98 -40 10 7 7 15 -10 38 -12 16 -25 31 -28 34 -3 3 -24 27 -48 54 l-42 49 48
22 c63 30 86 57 86 105 0 57 -49 101 -139 125 -49 13 -314 14 -324 1z m328
-57 c48 -21 68 -58 50 -92 -25 -47 -83 -64 -206 -63 l-98 1 -3 88 -3 88 110
-2 c82 -1 119 -6 150 -20z"/>
<path d="M11221 3346 c-8 -9 -11 -79 -9 -222 l3 -209 35 0 35 0 3 218 c1 119
-1 217 -5 218 -5 0 -18 2 -29 5 -12 2 -27 -3 -33 -10z"/>
</g>
</svg>
